# xmcd
#
# Track frame offsets:
#	150
#	20637
#	40940
#	69224
#	86432
#	119907
#	136232
#	153756
#	176632
#	196762
#	210064
#	237265
#	250765
#	271643
#
# Disc length: 4113 seconds
#
# Revision: 1
# Processed by: cddbd v1.5.2PL0 Copyright (c) Steve Scherf et al.
# Submitted via: audiograbber 1.83.01
#
DISCID=ae100f0e
DTITLE=Straightup Blues Band - Ain't Got A Clue
DYEAR=1900
DGENRE=Blues
TTITLE0=Just Stepped Into The Blues
TTITLE1=Dead Man Walking
TTITLE2=Old Weakness
TTITLE3=Use My Imagination
TTITLE4=Redhouse
TTITLE5=Fool Proof
TTITLE6=Further On Up The Road
TTITLE7=ABC Man
TTITLE8=Voodoo Woman
TTITLE9=Let's Work Together
TTITLE10=That's Why I Play The Blues
TTITLE11=Blues Is Still My Friend
TTITLE12=Don't Take Advantage Of Me
TTITLE13=Summertime
EXTD=
EXTT0=
EXTT1=
EXTT2=
EXTT3=
EXTT4=
EXTT5=
EXTT6=
EXTT7=
EXTT8=
EXTT9=
EXTT10=
EXTT11=
EXTT12=
EXTT13=
PLAYORDER=
